<?xml version="1.0" standalone="no"?>
<!DOCTYPE svg PUBLIC "-//W3C//DTD SVG 20010904//EN"
 "http://www.w3.org/TR/2001/REC-SVG-20010904/DTD/svg10.dtd">
<svg version="1.0" xmlns="http://www.w3.org/2000/svg"
 width="1933.000000pt" height="1933.000000pt" viewBox="0 0 1933.000000 1933.000000"
 preserveAspectRatio="xMidYMid meet">
<metadata>
Created by potrace 1.14, written by Peter Selinger 2001-2017
</metadata>
<g transform="translate(0.000000,1933.000000) scale(0.100000,-0.100000)"
fill="#000000" stroke="none">
<path d="M5880 17449 c-258 -23 -493 -104 -710 -247 -115 -75 -307 -268 -389
-391 -126 -190 -215 -406 -268 -656 -26 -122 -27 -145 -28 -385 0 -225 3 -269
23 -372 146 -748 632 -1231 1327 -1317 151 -19 382 -8 535 25 493 107 876 442
1073 939 164 414 174 931 27 1359 -213 617 -687 994 -1318 1046 -130 11 -137
11 -272 -1z m341 -574 c440 -89 717 -519 717 -1110 0 -384 -106 -681 -318
-896 -86 -86 -106 -102 -200 -147 -145 -69 -223 -87 -390 -87 -161 0 -257 19
-377 75 -302 141 -489 454 -534 895 -52 513 135 983 470 1179 170 99 417 135
632 91z"/>
<path d="M17695 17448 c-281 -25 -544 -120 -749 -271 -421 -312 -656 -820
-656 -1420 0 -509 158 -947 452 -1253 208 -216 458 -347 773 -405 158 -30 469
-32 615 -6 115 22 274 73 367 120 179 91 356 253 483 443 73 110 177 312 182
354 3 21 -19 33 -267 146 -148 68 -272 120 -276 116 -4 -4 -12 -25 -19 -47
-70 -219 -240 -430 -414 -515 -126 -62 -188 -75 -356 -74 -116 1 -161 5 -225
23 -215 58 -375 180 -496 375 -228 370 -249 963 -49 1368 110 222 270 372 474
445 139 49 360 60 500 24 247 -64 443 -261 504 -507 l18 -70 291 74 291 75
-19 68 c-82 297 -239 538 -451 694 -251 186 -610 275 -973 243z"/>
<path d="M0 15760 l0 -1610 290 0 290 0 0 1347 c0 741 4 1343 8 1338 5 -6 33
-111 62 -235 52 -226 217 -922 290 -1230 22 -91 75 -318 120 -505 121 -512
150 -636 161 -677 l10 -38 284 0 c262 0 284 1 289 18 2 9 41 172 86 362 44
190 110 467 145 615 35 149 116 491 180 760 64 270 139 587 167 705 28 118 54
219 59 225 5 5 9 -569 9 -1338 l0 -1347 290 0 290 0 0 1610 0 1610 -453 0
-453 0 -73 -307 c-40 -170 -110 -465 -156 -658 -45 -192 -142 -602 -216 -910
-73 -308 -134 -572 -137 -587 -2 -16 -8 -28 -12 -28 -9 0 4 -53 -200 810 -95
399 -189 799 -211 890 -79 332 -172 726 -178 755 l-7 30 -467 3 -467 2 0
-1610z"/>
<path d="M9080 15760 l0 -1610 305 0 305 0 0 545 0 545 415 0 c326 0 436 3
511 15 433 70 735 333 841 734 22 83 26 121 29 276 2 126 -1 204 -11 260 -43
238 -133 413 -289 563 -153 147 -352 237 -601 271 -48 7 -339 11 -791 11
l-714 0 0 -1610z m1414 1086 c89 -26 172 -72 223 -122 144 -145 187 -476 90
-696 -34 -77 -131 -177 -209 -216 -122 -61 -148 -64 -545 -69 l-363 -5 -1 541
c-1 298 -1 548 -1 556 0 8 0 20 1 26 1 8 108 10 374 6 312 -4 381 -7 431 -21z"/>
<path d="M13465 17358 c-13 -37 -1075 -3203 -1075 -3205 0 -2 143 -2 317 -1
l317 3 77 255 c42 140 84 281 93 313 l17 57 614 0 614 0 19 -62 c10 -35 52
-177 93 -315 l74 -253 318 0 c174 0 317 1 317 3 0 1 -243 724 -539 1607 l-539
1605 -356 3 c-280 2 -357 0 -361 -10z m459 -884 c243 -801 346 -1145 346
-1154 0 -7 -152 -10 -445 -10 -286 0 -445 4 -445 10 0 8 395 1324 431 1438 6
18 13 31 15 29 3 -3 47 -144 98 -313z"/>
<path d="M14225 13364 c-1039 -65 -1811 -291 -2435 -715 -166 -113 -267 -195
-424 -349 -330 -322 -550 -674 -697 -1112 -214 -642 -235 -1484 -53 -2128 260
-916 911 -1458 2193 -1825 320 -91 351 -98 1561 -336 988 -194 1135 -225 1395
-300 684 -195 1066 -445 1255 -819 166 -330 183 -810 40 -1153 -164 -395 -566
-704 -1110 -853 -312 -86 -581 -118 -1000 -117 -415 0 -700 32 -1007 113 -317
84 -614 233 -835 417 -337 281 -551 703 -600 1182 -6 58 -12 112 -14 119 -3 9
-231 12 -1100 12 l-1097 0 7 -87 c31 -404 118 -829 241 -1169 398 -1096 1293
-1853 2572 -2173 526 -131 1062 -191 1718 -191 1433 0 2525 314 3330 956 142
114 379 350 485 484 453 571 670 1248 670 2086 0 457 -47 782 -165 1140 -123
373 -297 658 -564 924 -223 223 -452 382 -776 540 -213 104 -353 160 -611 246
-313 103 -588 165 -1618 365 -538 104 -1040 203 -1115 220 -529 117 -938 247
-1214 385 -384 192 -571 465 -607 886 -11 133 -2 280 24 403 92 434 442 780
964 954 364 121 842 158 1362 105 459 -46 831 -166 1123 -360 375 -250 618
-665 683 -1168 8 -67 18 -136 20 -153 l5 -33 1049 0 1050 0 0 123 c0 380 -85
854 -216 1204 -118 315 -296 634 -492 880 -295 370 -752 686 -1312 908 -713
283 -1284 384 -2200 390 -234 1 -452 1 -485 -1z"/>
<path d="M40 7710 l0 -5480 2283 0 c1410 0 2347 4 2452 10 1386 82 2362 502
3025 1300 695 837 1101 1851 1250 3117 43 373 54 578 54 1063 -1 470 -10 664
-50 1010 -138 1214 -523 2227 -1159 3044 -133 172 -215 264 -363 408 -647 626
-1471 929 -2722 998 -116 6 -1043 10 -2477 10 l-2293 0 0 -5480z m4500 3590
c756 -53 1313 -357 1699 -925 356 -524 548 -1226 602 -2205 13 -242 7 -918
-10 -1120 -64 -736 -192 -1263 -417 -1713 -337 -671 -876 -1070 -1604 -1186
-224 -36 -387 -41 -1467 -41 l-1053 0 0 3600 0 3600 1053 0 c611 0 1113 -4
1197 -10z"/>
</g>
</svg>
