<?xml version="1.0" encoding="utf-8"?>
<!-- Generator: Adobe Illustrator 15.0.0, SVG Export Plug-In . SVG Version: 6.00 Build 0)  -->
<!DOCTYPE svg PUBLIC "-//W3C//DTD SVG 1.1//EN" "http://www.w3.org/Graphics/SVG/1.1/DTD/svg11.dtd">
<svg version="1.1" id="Layer_1" xmlns="http://www.w3.org/2000/svg" xmlns:xlink="http://www.w3.org/1999/xlink" x="0px" y="0px"
	 width="410.664px" height="344.998px" viewBox="0 358.502 410.664 344.998" enable-background="new 0 358.502 410.664 344.998"
	 xml:space="preserve">
<path fill="#4D4D4F" d="M0.214,360.472c0.351-0.133,0.702-0.193,1.053-0.193c5.919-0.006,11.839,0.019,17.758-0.028
	c0.935-0.008,1.266,0.288,1.474,1.175c3.982,16.965,7.998,33.922,12.006,50.88c0.098,0.415,0.197,0.829,0.466,1.281
	c0.266-1.038,0.55-2.072,0.796-3.115c3.874-16.405,7.743-32.812,11.615-49.217c0.12-0.508,0.155-1.001,0.946-0.997
	c6.133,0.036,12.267,0.026,18.4,0.033c0.067,0,0.135,0.033,0.263,0.067c0,22.93,0,45.875,0,68.869c-4.117,0-8.203,0-12.401,0
	c0-19.086,0-38.159,0-57.232c-0.081-0.011-0.162-0.022-0.243-0.034c-0.406,1.704-0.813,3.407-1.217,5.111
	c-4.058,17.13-8.117,34.26-12.165,51.392c-0.116,0.491-0.193,0.832-0.843,0.826c-3.85-0.029-7.699-0.015-11.657-0.015
	c-4.532-19.132-9.06-38.245-13.587-57.358c-0.07,0.01-0.141,0.02-0.211,0.029c0,19.073,0,38.145,0,57.329c-4.144,0-8.198,0-12.352,0
	C0.214,406.374,0.214,383.473,0.214,360.472z"/>
<path fill="#4E4E50" d="M116.801,360.766c16.055-6.002,36.235-0.462,43.223,20.042c3.915,11.486,3.279,22.843-2.536,33.597
	c-5.238,9.687-13.502,15.216-24.507,16.381c-9.301,0.984-17.775-1.15-24.963-7.341c-6.086-5.24-9.599-12.028-11.159-19.821
	c-1.856-9.271-1.052-18.298,3.087-26.884C103.518,369.33,109.013,363.881,116.801,360.766 M109.6,395.714
	c0.486,3.012,0.67,6.111,1.517,9.019c2.326,7.99,7.945,13.489,16.483,14.182c7.927,0.644,15.138-3.45,18.335-10.772
	c3.375-7.729,3.698-15.693,1.18-23.67c-2.355-7.462-7.065-12.659-15.238-13.703c-7.727-0.986-14.438,1.748-18.553,8.829
	C110.464,384.518,109.613,389.922,109.6,395.714z"/>
<path fill="#4E4E50" d="M395.711,378.73c-3.326-6.029-8.536-8.453-15.14-8.097c-7.143,0.384-12.329,4.013-15.226,10.409
	c-4.221,9.32-4.219,18.832,0.324,28.064c5.266,10.703,17.293,11.613,24.043,7.996c4.037-2.163,6.438-5.713,8.108-9.844
	c0.29-0.716,0.549-1.443,0.854-2.25c3.969,1.813,7.865,3.592,11.989,5.475c-1.028,2.053-1.932,4.09-3.034,6.012
	c-4.284,7.462-10.443,12.508-19.081,13.91c-10.596,1.72-20.459,0.082-28.765-7.305c-4.97-4.421-7.966-10.078-9.575-16.455
	c-2.45-9.703-2.225-19.332,1.89-28.552c5.356-12.002,14.651-18.685,27.891-19.513c6.431-0.402,12.576,0.718,18.119,4.188
	c6.196,3.881,9.677,9.68,11.466,16.624c0.062,0.241,0.12,0.482,0.213,0.852c-4.165,1.064-8.319,2.126-12.415,3.173
	C396.823,381.857,396.285,380.33,395.711,378.73z"/>
<path fill="#4E4E50" d="M317.77,429.274c-1.601,0-3.095,0-4.62,0c-1.255-4.214-2.498-8.363-3.722-12.519
	c-0.166-0.565-0.361-0.886-1.067-0.883c-8.309,0.029-16.618,0.02-24.926,0.022c-0.141,0-0.282,0.03-0.508,0.057
	c-1.316,4.4-2.637,8.82-3.97,13.275c-4.541,0-9.054,0-13.68,0c0.993-2.964,1.96-5.854,2.93-8.743
	c6.38-19.003,12.759-38.006,19.144-57.006c0.349-1.039,0.468-2.448,1.204-2.98c0.738-0.534,2.115-0.215,3.212-0.219
	c3.602-0.014,7.204,0.033,10.804-0.033c0.898-0.016,1.225,0.315,1.484,1.096c3.633,10.922,7.283,21.838,10.947,32.75
	c3.824,11.388,7.669,22.769,11.501,34.153c0.101,0.298,0.171,0.605,0.289,1.028C323.768,429.274,320.822,429.274,317.77,429.274
	 M288.783,404.418c5.579,0,11.158,0,16.857,0c-3.195-10.581-6.344-21.007-9.492-31.433c-0.065,0.001-0.131,0.002-0.197,0.003
	c-3.149,10.43-6.299,20.859-9.444,31.275c0.135,0.074,0.192,0.133,0.25,0.134C287.362,404.41,287.968,404.413,288.783,404.418z"/>
<path fill="#4D4D4F" d="M205.427,360.274c6.594,0.032,13.089-0.114,19.567,0.15c5.781,0.235,11.018,2.185,15.175,6.421
	c3.563,3.631,5.3,8.13,5.842,13.1c0.521,4.776,0.158,9.477-1.963,13.884c-3.175,6.597-8.589,10.274-15.64,11.653
	c-1.838,0.359-3.748,0.457-5.626,0.481c-5.023,0.063-10.048,0.021-15.209,0.021c0,7.761,0,15.469,0,23.232c-4.433,0-8.73,0-13.092,0
	c0-22.934,0-45.844,0-68.944C198.085,360.274,201.702,360.274,205.427,360.274 M230.757,390.289c1.707-2.77,1.966-5.795,1.677-8.954
	c-0.568-6.189-4.02-9.739-10.231-10.038c-4.766-0.23-9.548-0.133-14.323-0.176c-0.095-0.001-0.191,0.07-0.29,0.108
	c0,7.953,0,15.889,0,23.735c5.147,0,10.242,0.174,15.319-0.063C226.113,394.752,228.82,393.184,230.757,390.289z"/>
<g>
	<path d="M0.214,692.303V443.138h90.987c17.877,0,32.618,2.283,44.219,6.837c11.601,4.561,21.336,11.85,29.217,21.875
		c18.937,24.153,28.412,56.052,28.412,95.7c0,40.105-9.475,72.004-28.412,95.701c-15.116,19.367-39.596,29.052-73.436,29.052H0.214z
		 M48.344,649.578h42.888c35.789,0,53.684-27.226,53.684-81.688c0-54.684-17.895-82.028-53.684-82.028H48.344V649.578z"/>
	<path d="M401.496,519.015h-44.938c-1.709-26.432-18.026-39.648-48.942-39.648c-12.372,0-22.177,2.837-29.429,8.497
		c-7.252,5.667-10.878,13.237-10.878,22.714c0,9.252,3.119,16.124,9.364,20.629c6.245,4.508,17.978,8.616,35.205,12.31l36.373,7.377
		c21.021,4.575,36.316,12.3,45.896,23.167c9.572,10.874,14.365,26.148,14.365,45.821c0,25.175-8.329,44.849-24.973,59.023
		c-16.645,14.174-39.825,21.26-69.529,21.26c-29.822,0-52.968-7.064-69.438-21.19c-16.478-14.125-25.453-34.521-26.939-61.182
		h46.535c0.837,13.665,5.728,24.09,14.682,31.271c8.951,7.18,21.524,10.769,37.72,10.769c14.494,0,25.949-2.995,34.369-8.985
		c8.419-5.993,12.629-14.287,12.629-24.895c0-10.137-3.272-17.97-9.809-23.504c-6.53-5.529-17.707-9.912-33.515-13.135
		l-32.534-6.724c-23.587-4.814-40.374-12.381-50.363-22.696c-9.989-10.32-14.977-25.218-14.977-44.705
		c0-24.248,7.659-43.005,22.979-56.263c15.317-13.255,36.824-19.888,64.506-19.888c8.117,0,15.967,0.568,23.55,1.706
		c7.578,1.146,15.644,3.477,24.188,7.009c8.552,3.536,15.922,8.09,22.118,13.673c6.189,5.582,11.372,13.328,15.533,23.24
		C399.412,494.577,401.496,506.027,401.496,519.015z"/>
</g>
</svg>
