<?xml version="1.0" encoding="utf-8"?>
<!-- Generator: Adobe Illustrator 15.0.0, SVG Export Plug-In . SVG Version: 6.00 Build 0)  -->
<!DOCTYPE svg PUBLIC "-//W3C//DTD SVG 1.1//EN" "http://www.w3.org/Graphics/SVG/1.1/DTD/svg11.dtd">
<svg version="1.1" id="Layer_1" xmlns="http://www.w3.org/2000/svg" xmlns:xlink="http://www.w3.org/1999/xlink" x="0px" y="0px"
	 width="612px" height="792px" viewBox="0 0 612 792" enable-background="new 0 0 612 792" xml:space="preserve">
<path fill="#FFFFFF" d="M0.214,360.371c0-1.783,0-3.565,0-5.349c149.797,0,299.594,0,449.473,0.099
	c0.081,27.281,0.079,54.464,0.078,81.646c0,0.213,0.022,0.426,0.034,0.639c-149.862,0-299.723,0-449.585,0
	c0-2.66,0-5.299,0.101-8.034c4.154-0.098,8.208-0.098,12.352-0.098c0-19.184,0-38.256,0-57.329c0.071-0.01,0.141-0.02,0.211-0.029
	c4.527,19.113,9.055,38.226,13.587,57.358c3.958,0,7.808-0.015,11.657,0.015c0.65,0.006,0.727-0.335,0.843-0.826
	c4.047-17.132,8.106-34.262,12.165-51.392c0.404-1.704,0.812-3.407,1.217-5.111c0.081,0.011,0.162,0.022,0.243,0.034
	c0,19.073,0,38.146,0,57.232c4.198,0,8.284,0,12.401,0c0-22.994,0-45.939,0-68.869c-0.128-0.034-0.195-0.067-0.263-0.067
	c-6.133-0.007-12.267,0.003-18.4-0.033c-0.791-0.005-0.826,0.488-0.946,0.997c-3.872,16.406-7.741,32.813-11.615,49.217
	c-0.247,1.043-0.53,2.077-0.796,3.115c-0.269-0.452-0.368-0.866-0.466-1.281c-4.008-16.958-8.024-33.915-12.006-50.88
	c-0.208-0.887-0.539-1.183-1.474-1.175c-5.919,0.047-11.839,0.022-17.758,0.028C0.916,360.278,0.565,360.339,0.214,360.371
	 M116.724,360.796c-7.711,3.085-13.206,8.534-16.778,15.943c-4.139,8.586-4.943,17.613-3.087,26.884
	c1.56,7.793,5.072,14.581,11.159,19.821c7.188,6.19,15.662,8.325,24.963,7.341c11.005-1.165,19.269-6.694,24.507-16.381
	c5.815-10.754,6.451-22.111,2.536-33.597C153.036,360.304,132.856,354.763,116.724,360.796 M395.747,378.802
	c0.538,1.528,1.076,3.056,1.625,4.615c4.096-1.047,8.25-2.109,12.415-3.173c-0.093-0.37-0.151-0.611-0.213-0.852
	c-1.789-6.944-5.27-12.743-11.466-16.624c-5.543-3.471-11.688-4.59-18.119-4.188c-13.239,0.828-22.534,7.51-27.891,19.513
	c-4.114,9.22-4.34,18.849-1.89,28.552c1.609,6.377,4.605,12.034,9.575,16.455c8.306,7.387,18.169,9.024,28.765,7.305
	c8.638-1.402,14.797-6.448,19.081-13.91c1.103-1.922,2.006-3.959,3.034-6.012c-4.124-1.883-8.021-3.662-11.989-5.475
	c-0.305,0.807-0.563,1.534-0.854,2.25c-1.67,4.131-4.071,7.681-8.108,9.844c-6.75,3.617-18.777,2.707-24.043-7.996
	c-4.543-9.232-4.545-18.744-0.324-28.064c2.896-6.396,8.083-10.024,15.226-10.409C387.175,370.277,392.385,372.701,395.747,378.802
	 M317.876,429.274c2.946,0,5.892,0,8.916,0c-0.118-0.423-0.188-0.73-0.289-1.028c-3.832-11.385-7.677-22.766-11.501-34.153
	c-3.664-10.912-7.314-21.828-10.947-32.75c-0.259-0.781-0.586-1.112-1.484-1.096c-3.601,0.065-7.203,0.019-10.804,0.033
	c-1.097,0.004-2.474-0.315-3.212,0.219c-0.736,0.532-0.854,1.941-1.204,2.98c-6.385,19-12.764,38.003-19.144,57.006
	c-0.97,2.889-1.937,5.779-2.93,8.743c4.626,0,9.139,0,13.68,0c1.333-4.455,2.654-8.875,3.97-13.275
	c0.227-0.026,0.368-0.057,0.508-0.057c8.309-0.003,16.617,0.007,24.926-0.022c0.706-0.003,0.901,0.317,1.067,0.883
	c1.224,4.155,2.467,8.305,3.722,12.519C314.675,429.274,316.169,429.274,317.876,429.274 M205.32,360.274c-3.618,0-7.235,0-10.839,0
	c0,23.1,0,46.01,0,68.944c4.362,0,8.659,0,13.092,0c0-7.764,0-15.472,0-23.232c5.161,0,10.186,0.042,15.209-0.021
	c1.879-0.024,3.789-0.122,5.626-0.481c7.05-1.379,12.465-5.057,15.64-11.653c2.121-4.407,2.484-9.107,1.963-13.884
	c-0.542-4.97-2.279-9.469-5.842-13.1c-4.158-4.236-9.395-6.186-15.175-6.421C218.516,360.16,212.021,360.306,205.32,360.274z"/>
<path fill="#4D4D4F" d="M0.214,360.472c0.351-0.133,0.702-0.193,1.053-0.193c5.919-0.006,11.839,0.019,17.758-0.028
	c0.935-0.008,1.266,0.288,1.474,1.175c3.982,16.965,7.998,33.922,12.006,50.88c0.098,0.415,0.197,0.829,0.466,1.281
	c0.266-1.038,0.55-2.072,0.796-3.115c3.874-16.405,7.743-32.812,11.615-49.217c0.12-0.508,0.155-1.001,0.946-0.997
	c6.133,0.036,12.267,0.026,18.4,0.033c0.067,0,0.135,0.033,0.263,0.067c0,22.93,0,45.875,0,68.869c-4.117,0-8.203,0-12.401,0
	c0-19.086,0-38.159,0-57.232c-0.081-0.011-0.162-0.022-0.243-0.034c-0.406,1.704-0.813,3.407-1.217,5.111
	c-4.058,17.13-8.117,34.26-12.165,51.392c-0.116,0.491-0.193,0.832-0.843,0.826c-3.85-0.029-7.699-0.015-11.657-0.015
	c-4.532-19.132-9.06-38.245-13.587-57.358c-0.07,0.01-0.141,0.02-0.211,0.029c0,19.073,0,38.145,0,57.329c-4.144,0-8.198,0-12.352,0
	C0.214,406.374,0.214,383.473,0.214,360.472z"/>
<path fill="#4D4D4F" d="M450.36,355.021c0.092,0.213,0.114,0.426,0.114,0.639c-0.001,27.183-0.002,54.365-0.019,81.646
	c-0.176,0.1-0.337,0.1-0.577,0.1c-0.092-0.213-0.114-0.426-0.114-0.639c0.001-27.183,0.003-54.365,0.019-81.646
	C449.959,355.021,450.119,355.021,450.36,355.021z"/>
<path fill="#4E4E50" d="M116.801,360.766c16.055-6.002,36.235-0.462,43.223,20.042c3.915,11.486,3.279,22.843-2.536,33.597
	c-5.238,9.687-13.502,15.216-24.507,16.381c-9.301,0.984-17.775-1.15-24.963-7.341c-6.086-5.24-9.599-12.028-11.159-19.821
	c-1.856-9.271-1.052-18.298,3.087-26.884C103.518,369.33,109.013,363.881,116.801,360.766 M109.6,395.714
	c0.486,3.012,0.67,6.111,1.517,9.019c2.326,7.99,7.945,13.489,16.483,14.182c7.927,0.644,15.138-3.45,18.335-10.772
	c3.375-7.729,3.698-15.693,1.18-23.67c-2.355-7.462-7.065-12.659-15.238-13.703c-7.727-0.986-14.438,1.748-18.553,8.829
	C110.464,384.518,109.613,389.922,109.6,395.714z"/>
<path fill="#4E4E50" d="M395.711,378.73c-3.326-6.029-8.536-8.453-15.14-8.097c-7.143,0.384-12.329,4.013-15.226,10.409
	c-4.221,9.32-4.219,18.832,0.324,28.064c5.266,10.703,17.293,11.613,24.043,7.996c4.037-2.163,6.438-5.713,8.108-9.844
	c0.29-0.716,0.549-1.443,0.854-2.25c3.969,1.813,7.865,3.592,11.989,5.475c-1.028,2.053-1.932,4.09-3.034,6.012
	c-4.284,7.462-10.443,12.508-19.081,13.91c-10.596,1.72-20.459,0.082-28.765-7.305c-4.97-4.421-7.966-10.078-9.575-16.455
	c-2.45-9.703-2.225-19.332,1.89-28.552c5.356-12.002,14.651-18.685,27.891-19.513c6.431-0.402,12.576,0.718,18.119,4.188
	c6.196,3.881,9.677,9.68,11.466,16.624c0.062,0.241,0.12,0.482,0.213,0.852c-4.165,1.064-8.319,2.126-12.415,3.173
	C396.823,381.857,396.285,380.33,395.711,378.73z"/>
<path fill="#4E4E50" d="M317.77,429.274c-1.601,0-3.095,0-4.62,0c-1.255-4.214-2.498-8.363-3.722-12.519
	c-0.166-0.565-0.361-0.886-1.067-0.883c-8.309,0.029-16.618,0.02-24.926,0.022c-0.141,0-0.282,0.03-0.508,0.057
	c-1.316,4.4-2.637,8.82-3.97,13.275c-4.541,0-9.054,0-13.68,0c0.993-2.964,1.96-5.854,2.93-8.743
	c6.38-19.003,12.759-38.006,19.144-57.006c0.349-1.039,0.468-2.448,1.204-2.98c0.738-0.534,2.115-0.215,3.212-0.219
	c3.602-0.014,7.204,0.033,10.804-0.033c0.898-0.016,1.225,0.315,1.484,1.096c3.633,10.922,7.283,21.838,10.947,32.75
	c3.824,11.388,7.669,22.769,11.501,34.153c0.101,0.298,0.171,0.605,0.289,1.028C323.768,429.274,320.822,429.274,317.77,429.274
	 M288.783,404.418c5.579,0,11.158,0,16.857,0c-3.195-10.581-6.344-21.007-9.492-31.433c-0.065,0.001-0.131,0.002-0.197,0.003
	c-3.149,10.43-6.299,20.859-9.444,31.275c0.135,0.074,0.192,0.133,0.25,0.134C287.362,404.41,287.968,404.413,288.783,404.418z"/>
<path fill="#4D4D4F" d="M205.427,360.274c6.594,0.032,13.089-0.114,19.567,0.15c5.781,0.235,11.018,2.185,15.175,6.421
	c3.563,3.631,5.3,8.13,5.842,13.1c0.521,4.776,0.158,9.477-1.963,13.884c-3.175,6.597-8.589,10.274-15.64,11.653
	c-1.838,0.359-3.748,0.457-5.626,0.481c-5.023,0.063-10.048,0.021-15.209,0.021c0,7.761,0,15.469,0,23.232c-4.433,0-8.73,0-13.092,0
	c0-22.934,0-45.844,0-68.944C198.085,360.274,201.702,360.274,205.427,360.274 M230.757,390.289c1.707-2.77,1.966-5.795,1.677-8.954
	c-0.568-6.189-4.02-9.739-10.231-10.038c-4.766-0.23-9.548-0.133-14.323-0.176c-0.095-0.001-0.191,0.07-0.29,0.108
	c0,7.953,0,15.889,0,23.735c5.147,0,10.242,0.174,15.319-0.063C226.113,394.752,228.82,393.184,230.757,390.289z"/>
<path fill="#FFFFFF" d="M109.598,395.615c0.015-5.692,0.866-11.097,3.726-16.017c4.115-7.081,10.826-9.815,18.553-8.829
	c8.173,1.043,12.883,6.24,15.238,13.703c2.518,7.977,2.195,15.94-1.18,23.67c-3.198,7.322-10.408,11.416-18.335,10.772
	c-8.539-0.692-14.157-6.191-16.483-14.182C110.27,401.825,110.086,398.726,109.598,395.615z"/>
<path fill="#FEFEFE" d="M288.679,404.418c-0.711-0.005-1.316-0.008-1.922-0.021c-0.058-0.001-0.115-0.06-0.25-0.134
	c3.145-10.416,6.295-20.845,9.444-31.275c0.065-0.001,0.131-0.002,0.197-0.003c3.148,10.426,6.297,20.852,9.492,31.433
	C299.941,404.418,294.362,404.418,288.679,404.418z"/>
<path fill="#FEFEFE" d="M230.721,390.358c-1.9,2.826-4.607,4.394-7.812,4.544c-5.077,0.238-10.172,0.063-15.319,0.063
	c0-7.847,0-15.783,0-23.735c0.099-0.039,0.194-0.109,0.29-0.108c4.775,0.042,9.557-0.054,14.323,0.176
	c6.211,0.299,9.663,3.849,10.231,10.038C232.723,384.494,232.464,387.519,230.721,390.358z"/>
<g>
	<path d="M494.269,431.029V361.73h25.582c5.026,0,9.171,0.634,12.433,1.901c3.262,1.268,5.999,3.296,8.214,6.084
		c5.325,6.718,7.988,15.59,7.988,26.617c0,11.154-2.663,20.027-7.988,26.617c-4.249,5.387-11.132,8.08-20.646,8.08H494.269z
		 M507.801,419.146h12.059c10.063,0,15.094-7.572,15.094-22.719c0-15.209-5.031-22.814-15.094-22.814h-12.059V419.146z"/>
	<path d="M607.094,382.833h-12.635c-0.48-7.351-5.068-11.027-13.762-11.027c-3.478,0-6.234,0.789-8.273,2.363
		c-2.039,1.576-3.059,3.682-3.059,6.317c0,2.573,0.877,4.484,2.633,5.738s5.055,2.396,9.898,3.424l10.227,2.051
		c5.91,1.273,10.211,3.42,12.904,6.443c2.691,3.025,4.037,7.273,4.037,12.744c0,7.002-2.34,12.475-7.02,16.416
		c-4.68,3.943-11.197,5.914-19.549,5.914c-8.385,0-14.893-1.965-19.523-5.895c-4.633-3.928-7.156-9.602-7.574-17.016h13.084
		c0.234,3.801,1.61,6.699,4.128,8.697c2.517,1.996,6.052,2.994,10.604,2.994c4.076,0,7.297-0.832,9.664-2.498
		c2.365-1.668,3.551-3.975,3.551-6.924c0-2.82-0.92-4.998-2.758-6.537c-1.836-1.539-4.979-2.758-9.423-3.654l-9.147-1.869
		c-6.632-1.34-11.352-3.443-14.16-6.313c-2.809-2.87-4.211-7.014-4.211-12.434c0-6.743,2.153-11.96,6.461-15.648
		c4.307-3.687,10.353-5.531,18.137-5.531c2.282,0,4.489,0.159,6.621,0.475c2.131,0.318,4.398,0.967,6.801,1.949
		c2.404,0.983,4.477,2.25,6.219,3.803c1.74,1.553,3.197,3.707,4.367,6.464C606.508,376.037,607.094,379.221,607.094,382.833z"/>
</g>
</svg>
