<?xml version="1.0" encoding="utf-8"?>
<!-- Generator: Adobe Illustrator 15.0.0, SVG Export Plug-In . SVG Version: 6.00 Build 0)  -->
<!DOCTYPE svg PUBLIC "-//W3C//DTD SVG 1.1//EN" "http://www.w3.org/Graphics/SVG/1.1/DTD/svg11.dtd">
<svg version="1.1" id="Layer_1" xmlns="http://www.w3.org/2000/svg" xmlns:xlink="http://www.w3.org/1999/xlink" x="0px" y="0px"
	 width="612px" height="74.998px" viewBox="0 358.502 612 74.998" enable-background="new 0 358.502 612 74.998"
	 xml:space="preserve">
<path fill="#4D4D4F" d="M0.214,360.472c0.351-0.133,0.702-0.193,1.053-0.193c5.919-0.006,11.839,0.019,17.758-0.028
	c0.935-0.008,1.266,0.288,1.474,1.175c3.982,16.965,7.998,33.922,12.006,50.88c0.098,0.415,0.197,0.829,0.466,1.281
	c0.266-1.038,0.55-2.072,0.796-3.115c3.874-16.405,7.743-32.812,11.615-49.217c0.12-0.508,0.155-1.001,0.946-0.997
	c6.133,0.036,12.267,0.026,18.4,0.033c0.067,0,0.135,0.033,0.263,0.067c0,22.93,0,45.875,0,68.869c-4.117,0-8.203,0-12.401,0
	c0-19.086,0-38.159,0-57.232c-0.081-0.011-0.162-0.022-0.243-0.034c-0.406,1.704-0.813,3.407-1.217,5.111
	c-4.058,17.13-8.117,34.26-12.165,51.392c-0.116,0.491-0.193,0.832-0.843,0.826c-3.85-0.029-7.699-0.015-11.657-0.015
	c-4.532-19.132-9.06-38.245-13.587-57.358c-0.07,0.01-0.141,0.02-0.211,0.029c0,19.073,0,38.145,0,57.329c-4.144,0-8.198,0-12.352,0
	C0.214,406.374,0.214,383.473,0.214,360.472z"/>
<path fill="#4D4D4F" d="M450.36,355.021c0.092,0.213,0.114,0.426,0.114,0.639c-0.001,27.183-0.002,54.365-0.019,81.646
	c-0.176,0.1-0.337,0.1-0.577,0.1c-0.092-0.213-0.114-0.426-0.114-0.639c0.001-27.183,0.003-54.365,0.019-81.646
	C449.959,355.021,450.119,355.021,450.36,355.021z"/>
<path fill="#4E4E50" d="M116.801,360.766c16.055-6.002,36.235-0.462,43.223,20.042c3.915,11.486,3.279,22.843-2.536,33.597
	c-5.238,9.687-13.502,15.216-24.507,16.381c-9.301,0.984-17.775-1.15-24.963-7.341c-6.086-5.24-9.599-12.028-11.159-19.821
	c-1.856-9.271-1.052-18.298,3.087-26.884C103.518,369.33,109.013,363.881,116.801,360.766 M109.6,395.714
	c0.486,3.012,0.67,6.111,1.517,9.019c2.326,7.99,7.945,13.489,16.483,14.182c7.927,0.644,15.138-3.45,18.335-10.772
	c3.375-7.729,3.698-15.693,1.18-23.67c-2.355-7.462-7.065-12.659-15.238-13.703c-7.727-0.986-14.438,1.748-18.553,8.829
	C110.464,384.518,109.613,389.922,109.6,395.714z"/>
<path fill="#4E4E50" d="M395.711,378.73c-3.326-6.029-8.536-8.453-15.14-8.097c-7.143,0.384-12.329,4.013-15.226,10.409
	c-4.221,9.32-4.219,18.832,0.324,28.064c5.266,10.703,17.293,11.613,24.043,7.996c4.037-2.163,6.438-5.713,8.108-9.844
	c0.29-0.716,0.549-1.443,0.854-2.25c3.969,1.813,7.865,3.592,11.989,5.475c-1.028,2.053-1.932,4.09-3.034,6.012
	c-4.284,7.462-10.443,12.508-19.081,13.91c-10.596,1.72-20.459,0.082-28.765-7.305c-4.97-4.421-7.966-10.078-9.575-16.455
	c-2.45-9.703-2.225-19.332,1.89-28.552c5.356-12.002,14.651-18.685,27.891-19.513c6.431-0.402,12.576,0.718,18.119,4.188
	c6.196,3.881,9.677,9.68,11.466,16.624c0.062,0.241,0.12,0.482,0.213,0.852c-4.165,1.064-8.319,2.126-12.415,3.173
	C396.823,381.857,396.285,380.33,395.711,378.73z"/>
<path fill="#4E4E50" d="M317.77,429.274c-1.601,0-3.095,0-4.62,0c-1.255-4.214-2.498-8.363-3.722-12.519
	c-0.166-0.565-0.361-0.886-1.067-0.883c-8.309,0.029-16.618,0.02-24.926,0.022c-0.141,0-0.282,0.03-0.508,0.057
	c-1.316,4.4-2.637,8.82-3.97,13.275c-4.541,0-9.054,0-13.68,0c0.993-2.964,1.96-5.854,2.93-8.743
	c6.38-19.003,12.759-38.006,19.144-57.006c0.349-1.039,0.468-2.448,1.204-2.98c0.738-0.534,2.115-0.215,3.212-0.219
	c3.602-0.014,7.204,0.033,10.804-0.033c0.898-0.016,1.225,0.315,1.484,1.096c3.633,10.922,7.283,21.838,10.947,32.75
	c3.824,11.388,7.669,22.769,11.501,34.153c0.101,0.298,0.171,0.605,0.289,1.028C323.768,429.274,320.822,429.274,317.77,429.274
	 M288.783,404.418c5.579,0,11.158,0,16.857,0c-3.195-10.581-6.344-21.007-9.492-31.433c-0.065,0.001-0.131,0.002-0.197,0.003
	c-3.149,10.43-6.299,20.859-9.444,31.275c0.135,0.074,0.192,0.133,0.25,0.134C287.362,404.41,287.968,404.413,288.783,404.418z"/>
<path fill="#4D4D4F" d="M205.427,360.274c6.594,0.032,13.089-0.114,19.567,0.15c5.781,0.235,11.018,2.185,15.175,6.421
	c3.563,3.631,5.3,8.13,5.842,13.1c0.521,4.776,0.158,9.477-1.963,13.884c-3.175,6.597-8.589,10.274-15.64,11.653
	c-1.838,0.359-3.748,0.457-5.626,0.481c-5.023,0.063-10.048,0.021-15.209,0.021c0,7.761,0,15.469,0,23.232c-4.433,0-8.73,0-13.092,0
	c0-22.934,0-45.844,0-68.944C198.085,360.274,201.702,360.274,205.427,360.274 M230.757,390.289c1.707-2.77,1.966-5.795,1.677-8.954
	c-0.568-6.189-4.02-9.739-10.231-10.038c-4.766-0.23-9.548-0.133-14.323-0.176c-0.095-0.001-0.191,0.07-0.29,0.108
	c0,7.953,0,15.889,0,23.735c5.147,0,10.242,0.174,15.319-0.063C226.113,394.752,228.82,393.184,230.757,390.289z"/>
<g>
	<path d="M494.269,428.858v-69.3h25.582c5.026,0,9.171,0.634,12.433,1.901c3.262,1.268,5.999,3.296,8.215,6.084
		c5.324,6.718,7.988,15.59,7.988,26.617c0,11.154-2.664,20.026-7.988,26.617c-4.25,5.387-11.133,8.08-20.647,8.08H494.269z
		 M507.801,416.976h12.059c10.063,0,15.094-7.572,15.094-22.72c0-15.209-5.031-22.814-15.094-22.814h-12.059V416.976z"/>
	<path d="M607.094,380.662h-12.635c-0.48-7.351-5.068-11.027-13.761-11.027c-3.479,0-6.235,0.789-8.274,2.363
		c-2.039,1.576-3.059,3.682-3.059,6.317c0,2.573,0.877,4.484,2.633,5.738s5.055,2.396,9.898,3.424l10.227,2.051
		c5.91,1.273,10.211,3.42,12.904,6.443c2.691,3.024,4.039,7.272,4.039,12.744c0,7.002-2.342,12.474-7.021,16.416
		s-11.197,5.913-19.549,5.913c-8.385,0-14.893-1.965-19.523-5.894c-4.633-3.929-7.156-9.602-7.574-17.017h13.084
		c0.235,3.801,1.61,6.7,4.128,8.697c2.517,1.997,6.052,2.995,10.605,2.995c4.075,0,7.296-0.833,9.663-2.499
		c2.367-1.667,3.551-3.974,3.551-6.924c0-2.819-0.92-4.998-2.758-6.537c-1.836-1.538-4.979-2.757-9.423-3.653l-9.147-1.87
		c-6.632-1.339-11.352-3.443-14.16-6.313s-4.211-7.014-4.211-12.434c0-6.743,2.153-11.96,6.461-15.648
		c4.307-3.687,10.354-5.531,18.137-5.531c2.282,0,4.489,0.159,6.621,0.475c2.131,0.318,4.398,0.967,6.801,1.949
		c2.404,0.983,4.477,2.25,6.219,3.803c1.74,1.553,3.197,3.707,4.367,6.464C606.508,373.865,607.094,377.05,607.094,380.662z"/>
</g>
</svg>
